<?xml version="1.0" encoding="utf-8"?>
<!-- Generator: Adobe Illustrator 16.0.0, SVG Export Plug-In . SVG Version: 6.00 Build 0)  -->
<!DOCTYPE svg PUBLIC "-//W3C//DTD SVG 1.1//EN" "http://www.w3.org/Graphics/SVG/1.1/DTD/svg11.dtd">
<svg version="1.1" id="Layer_1" xmlns="http://www.w3.org/2000/svg" xmlns:xlink="http://www.w3.org/1999/xlink" x="0px" y="0px"
	 width="500.953px" height="323.781px" viewBox="0 0 500.953 323.781" enable-background="new 0 0 500.953 323.781"
	 xml:space="preserve">
<g>
	<g>
		
			<linearGradient id="SVGID_1_" gradientUnits="userSpaceOnUse" x1="166.751" y1="186.3691" x2="303.3398" y2="186.3691" gradientTransform="matrix(1 0 0 -1 -6 228.7812)">
			<stop  offset="0" style="stop-color:#188EBF"/>
			<stop  offset="0.2459" style="stop-color:#1D7AAA"/>
			<stop  offset="0.7761" style="stop-color:#1C5184"/>
			<stop  offset="1" style="stop-color:#1D3F75"/>
		</linearGradient>
		<polygon fill="url(#SVGID_1_)" points="171.92,44.124 160.751,74.319 229.411,34.61 250.439,47.431 297.515,74.616 297.664,49.5 
			230.657,10.207 		"/>
		
			<linearGradient id="SVGID_2_" gradientUnits="userSpaceOnUse" x1="353.6118" y1="174.4629" x2="284.74" y2="56.4521" gradientTransform="matrix(1 0 0 -1 -6 228.7812)">
			<stop  offset="0" style="stop-color:#F68B1F"/>
			<stop  offset="1" style="stop-color:#FFCF01"/>
		</linearGradient>
		<polygon fill="url(#SVGID_2_)" points="320.001,117.33 297.515,128.976 250.439,156.155 272.019,168.621 341.093,130.155 
			341.093,63.147 320.001,37.918 		"/>
		
			<linearGradient id="SVGID_3_" gradientUnits="userSpaceOnUse" x1="248.9712" y1="18.9219" x2="182.0333" y2="138.868" gradientTransform="matrix(1 0 0 -1 -6 228.7812)">
			<stop  offset="0" style="stop-color:#6CBE45"/>
			<stop  offset="1" style="stop-color:#0D9046"/>
		</linearGradient>
		<polygon fill="url(#SVGID_3_)" points="182.256,86.729 182.256,166.146 238.515,199.238 270.361,193.857 203.357,154.149 
			203.357,128.976 203.357,74.616 		"/>
		
			<linearGradient id="SVGID_4_" gradientUnits="userSpaceOnUse" x1="264.7495" y1="234.3125" x2="331.3" y2="115.5287" gradientTransform="matrix(1 0 0 -1 -6 228.7812)">
			<stop  offset="0" style="stop-color:#F68B1F"/>
			<stop  offset="1" style="stop-color:#FFCF01"/>
		</linearGradient>
		<polygon fill="url(#SVGID_4_)" points="230.657,10.207 297.664,49.5 297.515,74.616 297.515,128.976 320.001,117.33 
			320.001,37.918 262.5,3.999 		"/>
		
			<linearGradient id="SVGID_5_" gradientUnits="userSpaceOnUse" x1="160.2856" y1="78.8535" x2="229.2281" y2="197.7598" gradientTransform="matrix(1 0 0 -1 -6 228.7812)">
			<stop  offset="0" style="stop-color:#6CBE45"/>
			<stop  offset="0.2554" style="stop-color:#67B945"/>
			<stop  offset="0.5116" style="stop-color:#59AE45"/>
			<stop  offset="0.7672" style="stop-color:#40A046"/>
			<stop  offset="1" style="stop-color:#0D9046"/>
		</linearGradient>
		<polygon fill="url(#SVGID_5_)" points="160.751,74.319 160.751,141.738 182.256,166.146 182.256,86.729 203.357,74.616 
			250.439,47.431 229.416,34.61 		"/>
		
			<linearGradient id="SVGID_6_" gradientUnits="userSpaceOnUse" x1="348.438" y1="66.7739" x2="209.1461" y2="67.5476" gradientTransform="matrix(1 0 0 -1 -6 228.7812)">
			<stop  offset="0" style="stop-color:#188EBF"/>
			<stop  offset="0.2459" style="stop-color:#1D7AAA"/>
			<stop  offset="0.7761" style="stop-color:#1C5184"/>
			<stop  offset="1" style="stop-color:#1D3F75"/>
		</linearGradient>
		<polygon fill="url(#SVGID_6_)" points="203.352,154.158 270.367,193.857 329.101,161.168 341.089,130.146 272.019,168.621 
			250.439,156.165 203.352,128.985 		"/>
	</g>
	<g>
		<polygon fill="#1D3F75" points="3.341,233.188 13.016,233.188 35.371,262.572 35.371,233.188 45.735,233.188 45.735,280.904 
			36.808,280.904 13.699,250.576 13.699,280.904 3.341,280.904 		"/>
		<path fill="#1D3F75" d="M50.986,257.18v-0.135c0-13.562,10.701-24.668,25.425-24.668c14.726,0,25.286,10.971,25.286,24.533v0.135
			c0,13.564-10.701,24.68-25.422,24.68C61.553,281.725,50.986,270.744,50.986,257.18 M90.727,257.18v-0.135
			c0-8.18-5.999-14.992-14.451-14.992c-8.455,0-14.318,6.678-14.318,14.857v0.135c0,8.182,6.004,15.004,14.454,15.004
			C84.866,272.049,90.727,265.371,90.727,257.18"/>
		<polygon fill="#1D3F75" points="99.793,233.188 111.381,233.188 123.854,266.793 136.333,233.188 147.641,233.188 
			128.359,281.248 119.086,281.248 		"/>
		<path fill="#1D3F75" d="M160.467,232.854h9.674l20.449,48.051h-10.976l-4.356-10.7h-20.182l-4.36,10.7h-10.702L160.467,232.854z
			 M171.511,260.934l-6.346-15.471l-6.335,15.471H171.511z"/>
		<path fill="#1D3F75" d="M210.229,233.188h19.488c11.386,0,18.271,6.75,18.271,16.496v0.135c0,11.046-8.588,16.777-19.293,16.777
			h-7.973v14.309h-10.494L210.229,233.188L210.229,233.188z M229.042,257.254c5.243,0,8.312-3.133,8.312-7.229v-0.135
			c0-4.707-3.272-7.228-8.519-7.228h-8.113v14.59L229.042,257.254L229.042,257.254z"/>
		<rect x="252.146" y="233.188" fill="#1D3F75" width="10.499" height="47.717"/>
		<path fill="#1D3F75" d="M268.373,257.18v-0.135c0-13.562,10.703-24.668,25.426-24.668s25.289,10.971,25.289,24.533v0.135
			c0,13.564-10.701,24.68-25.424,24.68C278.935,281.725,268.373,270.744,268.373,257.18 M308.113,257.18v-0.135
			c0-8.18-5.998-14.992-14.449-14.992c-8.455,0-14.314,6.678-14.314,14.857v0.135c0,8.182,5.998,15.004,14.449,15.004
			S308.113,265.371,308.113,257.18"/>
		<polygon fill="#1D3F75" points="324.339,233.188 334.019,233.188 356.375,262.572 356.375,233.188 366.734,233.188 
			366.734,280.904 357.806,280.904 334.699,250.576 334.699,280.904 324.339,280.904 		"/>
		<polygon fill="#1D3F75" points="374.101,233.188 410.091,233.188 410.091,242.529 384.527,242.529 384.527,252.213 
			407.023,252.213 407.023,261.545 384.527,261.545 384.527,271.572 410.429,271.572 410.429,280.904 374.101,280.904 		"/>
		<polygon fill="#1D3F75" points="415.681,233.188 451.671,233.188 451.671,242.529 426.113,242.529 426.113,252.213 
			448.607,252.213 448.607,261.545 426.113,261.545 426.113,271.572 452.019,271.572 452.019,280.904 415.681,280.904 		"/>
		<path fill="#1D3F75" d="M457.265,233.188h21.812c6.064,0,10.768,1.709,13.904,4.842c2.658,2.664,4.096,6.408,4.096,10.908v0.136
			c0,7.702-4.16,12.547-10.23,14.797l11.66,17.034h-12.275l-10.225-15.264h-8.244v15.264h-10.5v-47.717H457.265z M478.394,256.371
			c5.111,0,8.051-2.729,8.051-6.75v-0.135c0-4.5-3.139-6.822-8.256-6.822h-10.426v13.707H478.394z"/>
	</g>
	<g>
		<path fill="#1D3F75" d="M2.724,318.822l2.224-2.664c1.538,1.27,3.15,2.07,5.104,2.07c1.537,0,2.469-0.613,2.469-1.611v-0.045
			c0-0.953-0.583-1.449-3.447-2.18c-3.441-0.882-5.665-1.834-5.665-5.228v-0.047c0-3.104,2.495-5.156,5.985-5.156
			c2.492,0,4.621,0.783,6.35,2.168l-1.953,2.836c-1.516-1.045-3.006-1.684-4.445-1.684s-2.201,0.655-2.201,1.493v0.045
			c0,1.125,0.733,1.494,3.695,2.25c3.465,0.9,5.423,2.152,5.423,5.132v0.053c0,3.396-2.593,5.304-6.282,5.304
			C7.391,321.559,4.777,320.648,2.724,318.822"/>
		<path fill="#1D3F75" d="M18.285,312.801v-0.045c0-4.859,3.664-8.848,8.92-8.848c3.225,0,5.152,1.08,6.744,2.646l-2.397,2.764
			c-1.32-1.205-2.659-1.937-4.375-1.937c-2.885,0-4.959,2.396-4.959,5.328v0.045c0,2.937,2.024,5.373,4.959,5.373
			c1.952,0,3.155-0.772,4.5-1.998l2.394,2.422c-1.763,1.882-3.716,3.052-7.016,3.052C22.024,321.604,18.285,317.715,18.285,312.801"
			/>
		<polygon fill="#1D3F75" points="36.582,304.205 40.344,304.205 40.344,310.975 47.282,310.975 47.282,304.205 51.049,304.205 
			51.049,321.305 47.282,321.305 47.282,314.439 40.344,314.439 40.344,321.305 36.582,321.305 		"/>
		<path fill="#1D3F75" d="M53.902,312.801v-0.045c0-4.859,3.834-8.848,9.117-8.848c5.273,0,9.059,3.943,9.059,8.803v0.045
			c0,4.859-3.83,8.848-9.112,8.848C57.692,321.604,53.902,317.67,53.902,312.801 M68.149,312.801v-0.045
			c0-2.934-2.151-5.373-5.184-5.373c-3.028,0-5.126,2.395-5.126,5.328v0.045c0,2.936,2.151,5.373,5.18,5.373
			C66.049,318.129,68.149,315.736,68.149,312.801"/>
		<path fill="#1D3F75" d="M74.179,312.801v-0.045c0-4.859,3.839-8.848,9.118-8.848c5.273,0,9.062,3.943,9.062,8.803v0.045
			c0,4.859-3.834,8.848-9.112,8.848C77.969,321.604,74.179,317.67,74.179,312.801 M88.422,312.801v-0.045
			c0-2.934-2.143-5.373-5.175-5.373c-3.028,0-5.131,2.395-5.131,5.328v0.045c0,2.936,2.151,5.373,5.181,5.373
			C86.325,318.129,88.422,315.736,88.422,312.801"/>
		<polygon fill="#1D3F75" points="95.213,304.205 98.979,304.205 98.979,317.887 107.507,317.887 107.507,321.305 95.213,321.305 		
			"/>
		<path fill="#1D3F75" d="M108.676,318.822l2.224-2.664c1.54,1.27,3.155,2.07,5.108,2.07c1.538,0,2.466-0.613,2.466-1.611v-0.045
			c0-0.953-0.585-1.449-3.443-2.18c-3.447-0.882-5.665-1.834-5.665-5.228v-0.047c0-3.104,2.488-5.156,5.984-5.156
			c2.49,0,4.617,0.783,6.35,2.168l-1.953,2.836c-1.517-1.045-3.011-1.684-4.45-1.684c-1.44,0-2.196,0.655-2.196,1.493v0.045
			c0,1.125,0.733,1.494,3.69,2.25c3.47,0.9,5.423,2.152,5.423,5.132v0.053c0,3.396-2.588,5.304-6.283,5.304
			C113.348,321.559,110.729,320.648,108.676,318.822"/>
		<polygon fill="#1D3F75" points="131.838,304.205 144.86,304.205 144.86,307.625 135.6,307.625 135.6,311.262 143.758,311.262 
			143.758,314.689 135.6,314.689 135.6,321.305 131.838,321.305 		"/>
		<path fill="#1D3F75" d="M146.616,312.801v-0.045c0-4.859,3.834-8.848,9.116-8.848c5.275,0,9.063,3.943,9.063,8.803v0.045
			c0,4.859-3.839,8.848-9.112,8.848C150.404,321.604,146.616,317.67,146.616,312.801 M160.863,312.801v-0.045
			c0-2.934-2.151-5.373-5.18-5.373c-3.033,0-5.135,2.395-5.135,5.328v0.045c0,2.936,2.154,5.373,5.184,5.373
			C158.762,318.129,160.863,315.736,160.863,312.801"/>
		<path fill="#1D3F75" d="M167.654,304.205h7.814c2.175,0,3.862,0.613,4.987,1.738c0.954,0.953,1.462,2.295,1.462,3.906v0.043
			c0,2.764-1.488,4.5-3.662,5.311l4.18,6.102h-4.396l-3.667-5.471h-2.962v5.471h-3.756V304.205L167.654,304.205z M175.227,312.512
			c1.832,0,2.885-0.979,2.885-2.42v-0.045c0-1.611-1.129-2.439-2.957-2.439h-3.744v4.904H175.227L175.227,312.512z"/>
		<rect x="191.836" y="304.205" fill="#1D3F75" width="3.762" height="17.1"/>
		<polygon fill="#1D3F75" points="199.388,304.205 202.857,304.205 210.871,314.736 210.871,304.205 214.584,304.205 
			214.584,321.305 211.385,321.305 203.1,310.434 203.1,321.305 199.388,321.305 		"/>
		<polygon fill="#1D3F75" points="218.198,304.205 221.666,304.205 229.686,314.736 229.686,304.205 233.395,304.205 
			233.395,321.305 230.195,321.305 221.91,310.434 221.91,321.305 218.198,321.305 		"/>
		<path fill="#1D3F75" d="M236.251,312.801v-0.045c0-4.859,3.839-8.848,9.112-8.848c5.284,0,9.068,3.943,9.068,8.803v0.045
			c0,4.859-3.839,8.848-9.117,8.848C240.035,321.604,236.251,317.67,236.251,312.801 M250.494,312.801v-0.045
			c0-2.934-2.146-5.373-5.18-5.373c-3.029,0-5.13,2.395-5.13,5.328v0.045c0,2.936,2.151,5.373,5.179,5.373
			C248.393,318.129,250.494,315.736,250.494,312.801"/>
		<polygon fill="#1D3F75" points="254.72,304.205 258.875,304.205 263.346,316.256 267.819,304.205 271.875,304.205 264.96,321.432 
			261.632,321.432 		"/>
		<path fill="#1D3F75" d="M277.44,304.09h3.474l7.325,17.215h-3.932l-1.565-3.832h-7.23l-1.568,3.832h-3.833L277.44,304.09z
			 M281.405,314.15l-2.276-5.543l-2.271,5.543H281.405z"/>
		<polygon fill="#1D3F75" points="292.173,307.67 286.971,307.67 286.971,304.205 301.137,304.205 301.137,307.67 295.936,307.67 
			295.936,321.305 292.173,321.305 		"/>
		<path fill="#1D3F75" d="M302.042,312.801v-0.045c0-4.859,3.84-8.848,9.113-8.848c5.277,0,9.07,3.943,9.07,8.803v0.045
			c0,4.859-3.84,8.848-9.117,8.848C305.835,321.604,302.042,317.67,302.042,312.801 M316.289,312.801v-0.045
			c0-2.934-2.146-5.373-5.18-5.373c-3.029,0-5.13,2.395-5.13,5.328v0.045c0,2.936,2.146,5.373,5.177,5.373
			S316.289,315.736,316.289,312.801"/>
		<path fill="#1D3F75" d="M323.08,304.205h7.814c2.176,0,3.861,0.613,4.992,1.738c0.943,0.953,1.463,2.295,1.463,3.906v0.043
			c0,2.764-1.49,4.5-3.67,5.311l4.178,6.102h-4.393l-3.668-5.471h-2.957v5.471h-3.762v-17.1H323.08z M330.658,312.512
			c1.826,0,2.875-0.979,2.875-2.42v-0.045c0-1.611-1.121-2.439-2.955-2.439h-3.736v4.904H330.658L330.658,312.512z"/>
		<path fill="#1D3F75" d="M339.076,318.822l2.229-2.664c1.543,1.27,3.148,2.07,5.105,2.07c1.541,0,2.463-0.613,2.463-1.611v-0.045
			c0-0.953-0.58-1.449-3.443-2.18c-3.441-0.882-5.666-1.834-5.666-5.228v-0.047c0-3.104,2.49-5.156,5.986-5.156
			c2.492,0,4.617,0.783,6.354,2.168l-1.959,2.836c-1.512-1.045-3-1.684-4.443-1.684c-1.441,0-2.197,0.655-2.197,1.493v0.045
			c0,1.125,0.73,1.494,3.682,2.25c3.479,0.9,5.434,2.152,5.434,5.132v0.053c0,3.396-2.594,5.304-6.279,5.304
			C343.748,321.559,341.132,320.648,339.076,318.822"/>
		<path fill="#1D3F75" d="M371.769,319.65c-1.395,1.143-3.031,1.908-5.008,1.908c-3.275,0-5.742-1.908-5.742-4.941v-0.045
			c0-2.18,1.172-3.717,3.316-4.697c-0.828-1.172-1.191-2.242-1.191-3.422v-0.045c0-2.348,1.881-4.5,5.18-4.5
			c2.906,0,4.812,1.908,4.812,4.303v0.055c0,2.295-1.471,3.635-3.594,4.463l2.27,2.277c0.562-0.881,1.125-1.881,1.666-2.934
			l2.76,1.521c-0.66,1.187-1.393,2.466-2.25,3.609l2.52,2.521l-2.76,1.926L371.769,319.65z M369.669,317.5l-3.277-3.332
			c-1.125,0.594-1.588,1.422-1.588,2.26v0.045c0,1.197,1.002,1.998,2.396,1.998C368.052,318.471,368.882,318.111,369.669,317.5
			 M369.863,308.48v-0.045c0-0.98-0.658-1.593-1.617-1.593c-0.998,0-1.66,0.709-1.66,1.736v0.045c0,0.756,0.297,1.321,1.004,2.125
			C369.083,310.189,369.863,309.561,369.863,308.48"/>
		<polygon fill="#1D3F75" points="385.599,304.205 389.357,304.205 389.357,317.887 397.884,317.887 397.884,321.305 
			385.599,321.305 		"/>
		<polygon fill="#1D3F75" points="400.226,304.205 413.128,304.205 413.128,307.553 403.968,307.553 403.968,311.018 
			412.027,311.018 412.027,314.367 403.968,314.367 403.968,317.959 413.255,317.959 413.255,321.305 400.226,321.305 		"/>
		<path fill="#1D3F75" d="M421.97,304.09h3.477l7.33,17.215h-3.943l-1.557-3.832h-7.23l-1.564,3.832h-3.836L421.97,304.09z
			 M425.931,314.15l-2.271-5.543l-2.271,5.543H425.931z"/>
		<path fill="#1D3F75" d="M434.923,304.205h6.668c5.373,0,9.084,3.691,9.084,8.506v0.045c0,4.814-3.711,8.549-9.084,8.549h-6.668
			V304.205z M441.591,317.912c3.078,0,5.158-2.078,5.158-5.102v-0.056c0-3.022-2.08-5.147-5.158-5.147h-2.906v10.305H441.591z"/>
		<polygon fill="#1D3F75" points="453.535,304.205 466.437,304.205 466.437,307.553 457.279,307.553 457.279,311.018 
			465.337,311.018 465.337,314.367 457.279,314.367 457.279,317.959 466.558,317.959 466.558,321.305 453.535,321.305 		"/>
		<path fill="#1D3F75" d="M469.414,304.205h7.822c2.178,0,3.855,0.613,4.98,1.738c0.953,0.953,1.467,2.295,1.467,3.906v0.043
			c0,2.764-1.492,4.5-3.664,5.311l4.178,6.102h-4.4l-3.664-5.471h-2.951v5.471h-3.768V304.205z M476.994,312.512
			c1.826,0,2.879-0.979,2.879-2.42v-0.045c0-1.611-1.125-2.439-2.955-2.439h-3.736v4.904H476.994L476.994,312.512z"/>
		<path fill="#1D3F75" d="M485.417,318.822l2.223-2.664c1.539,1.27,3.148,2.07,5.104,2.07c1.539,0,2.471-0.613,2.471-1.611v-0.045
			c0-0.953-0.586-1.449-3.441-2.18c-3.445-0.882-5.664-1.834-5.664-5.228v-0.047c0-3.104,2.486-5.156,5.982-5.156
			c2.482,0,4.611,0.783,6.346,2.168l-1.949,2.836c-1.516-1.045-3.01-1.684-4.445-1.684c-1.445,0-2.201,0.655-2.201,1.493v0.045
			c0,1.125,0.736,1.494,3.691,2.25c3.465,0.9,5.422,2.152,5.422,5.132v0.053c0,3.396-2.592,5.304-6.283,5.304
			C490.08,321.559,487.468,320.648,485.417,318.822"/>
	</g>
</g>
</svg>
